# Blender 3.4.1
# www.blender.org
mtllib mebius2scissored1.mtl
o BezierCircle.001
v 5.080748 -3.218183 -9.660177
v 5.380747 -2.918183 -9.660178
v 5.380747 3.081817 -9.660179
v 5.080748 3.381818 -9.660179
v 4.780748 3.081817 -9.660179
v 4.780748 -2.918183 -9.660178
v 5.226749 -3.211117 -7.666695
v 5.505717 -2.892138 -7.645956
v 5.114375 3.095015 -7.675050
v 4.796276 3.374752 -7.698700
v 4.517310 3.055773 -7.719441
v 4.908648 -2.931380 -7.690345
v 5.232124 -3.189950 -5.817492
v 5.487163 -2.853359 -5.776712
v 4.713829 3.095310 -5.900364
v 4.381458 3.353586 -5.953508
v 4.126423 3.016995 -5.994287
v 4.899755 -2.931675 -5.870636
v 5.094048 -3.154773 -4.097681
v 5.322139 -2.802010 -4.038239
v 4.189430 3.082701 -4.333432
v 3.848069 3.318409 -4.422393
v 3.619977 2.965647 -4.481835
v 4.752687 -2.919065 -4.186642
v 4.807168 -3.105737 -2.494313
v 5.005460 -2.738313 -2.418946
v 3.553859 3.057241 -2.970672
v 3.210406 3.269373 -3.101211
v 3.012114 2.901950 -3.176578
v 4.463715 -2.893605 -2.624853
v 4.364394 -3.043051 -0.998498
v 4.530669 -2.662540 -0.911530
v 2.821684 3.019041 -1.805403
v 2.484509 3.206688 -1.981761
v 2.318233 2.826177 -2.068730
v 4.027219 -2.855404 -1.174856
v 3.759123 -2.966984 0.392704
v 3.892393 -2.575015 0.485437
v 2.007671 2.968263 -0.826012
v 1.685929 3.130621 -1.049890
v 1.552659 2.738652 -1.142623
v 3.437381 -2.804625 0.168826
v 2.988542 -2.877861 1.676014
v 3.089552 -2.476113 1.767639
v 1.123996 2.905124 -0.015304
v 0.826432 3.041499 -0.285224
v 0.725421 2.639751 -0.376849
v 2.690978 -2.741486 1.406094
v 2.056442 -2.776065 2.844155
v 2.127827 -2.366257 2.927594
v 0.177578 2.829895 0.648003
v -0.088831 2.939703 0.336605
v -0.160215 2.529896 0.253166
v 1.790033 -2.666257 2.532757
v 0.973747 -2.662030 3.889835
v 1.019695 -2.245918 3.958679
v -0.830829 2.742899 1.186088
v -1.061831 2.825669 0.839985
v -1.107779 2.409557 0.771141
v 0.742745 -2.579261 3.543731
v -0.243666 -2.536247 4.809299
v -0.218087 -2.115612 4.858415
v -1.905207 2.644507 1.618834
v -2.099497 2.699885 1.245760
v -2.125077 2.279250 1.196645
v -0.437956 -2.480869 4.436226
v -1.578353 -2.399252 5.603829
v -1.567946 -1.975896 5.629551
v -3.051560 2.535142 1.962205
v -3.210327 2.562891 1.569747
v -3.220734 2.139535 1.544024
v -1.737120 -2.371504 5.211371
v -3.014095 -2.251632 6.279171
v -3.014095 -1.827368 6.279171
v -4.275455 2.415272 2.228371
v -4.401591 2.415271 1.823291
v -4.401591 1.991007 1.823291
v -3.140230 -2.251633 5.874090
v -4.571157 -2.251633 6.700354
v -4.571158 -1.827368 6.700355
v -5.546533 2.415272 2.571353
v -5.644073 2.415272 2.158453
v -5.644071 1.991007 2.158452
v -4.668696 -2.251633 6.287454
v -6.185939 -2.251633 7.028200
v -6.185939 -1.827369 7.028200
v -6.919105 2.415272 2.849387
v -6.992422 2.415272 2.431506
v -6.992422 1.991008 2.431505
v -6.259256 -2.251633 6.610319
v -7.855430 -2.251633 7.276156
v -7.855430 -1.827369 7.276156
v -8.387500 2.415272 3.067009
v -8.440706 2.415272 2.646094
v -8.440706 1.991008 2.646095
v -7.908636 -2.251633 6.855242
v -9.577254 -2.251633 7.456415
v -9.577253 -1.827368 7.456415
v -9.945524 2.415272 3.229786
v -9.982351 2.415272 2.807123
v -9.982351 1.991008 2.807123
v -9.614081 -2.251633 7.033752
vn -0.0004 -1.0000 0.0038
vn 0.0806 -0.9967 0.0045
vn -0.8953 -0.4447 -0.0254
vn -0.9144 -0.4047 0.0053
vn 0.9332 -0.3594 -0.0056
vn 0.9475 -0.3182 0.0325
vn 0.9145 0.3988 0.0686
vn 0.8932 0.4373 0.1047
vn 0.0318 0.9995 0.0070
vn -0.0456 0.9990 -0.0009
vn -0.9280 0.3655 -0.0721
vn -0.9394 0.3242 -0.1118
vn 0.1466 -0.9890 0.0215
vn -0.8592 -0.5032 -0.0923
vn 0.9602 -0.2557 0.1124
vn 0.8511 0.4938 0.1784
vn -0.1072 0.9941 -0.0139
vn -0.9447 0.2614 -0.1981
vn 0.2086 -0.9766 0.0519
vn -0.8126 -0.5597 -0.1623
vn 0.9596 -0.1922 0.2055
vn 0.7966 0.5482 0.2550
vn -0.1657 0.9854 -0.0391
vn -0.9344 0.1972 -0.2967
vn 0.2634 -0.9598 0.0970
vn -0.7545 -0.6138 -0.2324
vn 0.9422 -0.1282 0.3097
vn 0.7284 0.6001 0.3305
vn -0.2187 0.9727 -0.0780
vn -0.9048 0.1319 -0.4048
vn 0.3068 -0.9388 0.1566
vn -0.6846 -0.6651 -0.2982
vn 0.9050 -0.0638 0.4205
vn 0.6467 0.6497 0.3997
vn -0.2631 0.9558 -0.1314
vn -0.8536 0.0658 -0.5167
vn 0.3352 -0.9139 0.2288
vn -0.6047 -0.7133 -0.3544
vn 0.8473 0.0007 0.5311
vn 0.5534 0.6968 0.4563
vn -0.2955 0.9345 -0.1986
vn -0.7808 -0.0009 -0.6248
vn 0.3465 -0.8856 0.3092
vn -0.5183 -0.7580 -0.3960
vn 0.7709 0.0651 0.6336
vn 0.4536 0.7414 0.4946
vn -0.3131 0.9085 -0.2766
vn -0.6900 -0.0677 -0.7207
vn 0.3409 -0.8541 0.3928
vn -0.4308 -0.7991 -0.4194
vn 0.6810 0.1293 0.7208
vn 0.3538 0.7833 0.5111
vn -0.3149 0.8778 -0.3609
vn -0.5882 -0.1340 -0.7975
vn 0.3209 -0.8196 0.4746
vn -0.3476 -0.8364 -0.4238
vn 0.5846 0.1931 0.7880
vn 0.2610 0.8224 0.5056
vn -0.3019 0.8426 -0.4459
vn -0.4838 -0.1993 -0.8522
vn 0.2904 -0.7822 0.5512
vn -0.2731 -0.8700 -0.4106
vn 0.4888 0.2563 0.8339
vn 0.1800 0.8582 0.4808
vn -0.2773 0.8033 -0.5271
vn -0.3840 -0.2634 -0.8849
vn 0.2539 -0.7417 0.6208
vn -0.2098 -0.8998 -0.3825
vn 0.3992 0.3187 0.8597
vn 0.1134 0.8903 0.4409
vn -0.2452 0.7603 -0.6015
vn -0.2938 -0.3261 -0.8985
vn 0.2203 -0.6882 0.6912
vn -0.1387 -0.9236 -0.3574
vn 0.2975 0.3714 0.8795
vn 0.0886 0.9166 0.3897
vn -0.2070 0.6995 -0.6840
vn -0.2467 -0.3794 -0.8917
vn 0.1644 -0.7000 0.6950
vn -0.0864 -0.9266 -0.3659
vn 0.2128 0.3800 0.9002
vn 0.0895 0.9211 0.3788
vn -0.1607 0.7143 -0.6811
vn -0.2120 -0.3854 -0.8981
vn 0.1233 -0.7012 0.7022
vn -0.0652 -0.9261 -0.3715
vn 0.1599 0.3804 0.9109
vn 0.0671 0.9216 0.3823
vn -0.1210 0.7131 -0.6906
vn -0.1594 -0.3850 -0.9091
vn 0.0894 -0.7023 0.7063
vn -0.0474 -0.9257 -0.3752
vn 0.1160 0.3808 0.9173
vn 0.0486 0.9220 0.3841
vn -0.0880 0.7120 -0.6967
vn -0.1157 -0.3845 -0.9158
vn 0.0618 -0.7032 0.7083
vn -0.0329 -0.9254 -0.3776
vn 0.0803 0.3812 0.9210
vn 0.0335 0.9224 0.3848
vn -0.0610 0.7110 -0.7005
vn -0.0801 -0.3842 -0.9198
vt 0.000000 1.000000
vt 0.000000 0.000000
vt 0.000000 0.166667
vt 0.000000 0.333333
vt 0.000000 0.500000
vt 0.000000 0.666667
vt 0.000000 0.833333
vt 0.010417 1.000000
vt 0.010417 0.000000
vt 0.010417 0.166667
vt 0.010417 0.333333
vt 0.010417 0.500000
vt 0.010417 0.666667
vt 0.010417 0.833333
vt 0.020833 1.000000
vt 0.020833 0.000000
vt 0.020833 0.166667
vt 0.020833 0.333333
vt 0.020833 0.500000
vt 0.020833 0.666667
vt 0.020833 0.833333
vt 0.031250 1.000000
vt 0.031250 0.000000
vt 0.031250 0.166667
vt 0.031250 0.333333
vt 0.031250 0.500000
vt 0.031250 0.666667
vt 0.031250 0.833333
vt 0.041667 1.000000
vt 0.041667 0.000000
vt 0.041667 0.166667
vt 0.041667 0.333333
vt 0.041667 0.500000
vt 0.041667 0.666667
vt 0.041667 0.833333
vt 0.052083 1.000000
vt 0.052083 0.000000
vt 0.052083 0.166667
vt 0.052083 0.333333
vt 0.052083 0.500000
vt 0.052083 0.666667
vt 0.052083 0.833333
vt 0.062500 1.000000
vt 0.062500 0.000000
vt 0.062500 0.166667
vt 0.062500 0.333333
vt 0.062500 0.500000
vt 0.062500 0.666667
vt 0.062500 0.833333
vt 0.072917 1.000000
vt 0.072917 0.000000
vt 0.072917 0.166667
vt 0.072917 0.333333
vt 0.072917 0.500000
vt 0.072917 0.666667
vt 0.072917 0.833333
vt 0.083333 1.000000
vt 0.083333 0.000000
vt 0.083333 0.166667
vt 0.083333 0.333333
vt 0.083333 0.500000
vt 0.083333 0.666667
vt 0.083333 0.833333
vt 0.093750 1.000000
vt 0.093750 0.000000
vt 0.093750 0.166667
vt 0.093750 0.333333
vt 0.093750 0.500000
vt 0.093750 0.666667
vt 0.093750 0.833333
vt 0.104167 1.000000
vt 0.104167 0.000000
vt 0.104167 0.166667
vt 0.104167 0.333333
vt 0.104167 0.500000
vt 0.104167 0.666667
vt 0.104167 0.833333
vt 0.114583 1.000000
vt 0.114583 0.000000
vt 0.114583 0.166667
vt 0.114583 0.333333
vt 0.114583 0.500000
vt 0.114583 0.666667
vt 0.114583 0.833333
vt 0.125000 1.000000
vt 0.125000 0.000000
vt 0.125000 0.166667
vt 0.125000 0.333333
vt 0.125000 0.500000
vt 0.125000 0.666667
vt 0.125000 0.833333
vt 0.135417 1.000000
vt 0.135417 0.000000
vt 0.135417 0.166667
vt 0.135417 0.333333
vt 0.135417 0.500000
vt 0.135417 0.666667
vt 0.135417 0.833333
vt 0.145833 1.000000
vt 0.145833 0.000000
vt 0.145833 0.166667
vt 0.145833 0.333333
vt 0.145833 0.500000
vt 0.145833 0.666667
vt 0.145833 0.833333
vt 0.156250 1.000000
vt 0.156250 0.000000
vt 0.156250 0.166667
vt 0.156250 0.333333
vt 0.156250 0.500000
vt 0.156250 0.666667
vt 0.156250 0.833333
vt 0.166667 1.000000
vt 0.166667 0.000000
vt 0.166667 0.166667
vt 0.166667 0.333333
vt 0.166667 0.500000
vt 0.166667 0.666667
vt 0.166667 0.833333
s 1
f 1/1/1 7/8/2 12/14/3 6/7/4
f 2/3/5 8/10/6 7/9/2 1/2/1
f 3/4/7 9/11/8 8/10/6 2/3/5
f 4/5/9 10/12/10 9/11/8 3/4/7
f 5/6/11 11/13/12 10/12/10 4/5/9
f 6/7/4 12/14/3 11/13/12 5/6/11
f 7/8/2 13/15/13 18/21/14 12/14/3
f 8/10/6 14/17/15 13/16/13 7/9/2
f 9/11/8 15/18/16 14/17/15 8/10/6
f 10/12/10 16/19/17 15/18/16 9/11/8
f 11/13/12 17/20/18 16/19/17 10/12/10
f 12/14/3 18/21/14 17/20/18 11/13/12
f 13/15/13 19/22/19 24/28/20 18/21/14
f 14/17/15 20/24/21 19/23/19 13/16/13
f 15/18/16 21/25/22 20/24/21 14/17/15
f 16/19/17 22/26/23 21/25/22 15/18/16
f 17/20/18 23/27/24 22/26/23 16/19/17
f 18/21/14 24/28/20 23/27/24 17/20/18
f 19/22/19 25/29/25 30/35/26 24/28/20
f 20/24/21 26/31/27 25/30/25 19/23/19
f 21/25/22 27/32/28 26/31/27 20/24/21
f 22/26/23 28/33/29 27/32/28 21/25/22
f 23/27/24 29/34/30 28/33/29 22/26/23
f 24/28/20 30/35/26 29/34/30 23/27/24
f 25/29/25 31/36/31 36/42/32 30/35/26
f 26/31/27 32/38/33 31/37/31 25/30/25
f 27/32/28 33/39/34 32/38/33 26/31/27
f 28/33/29 34/40/35 33/39/34 27/32/28
f 29/34/30 35/41/36 34/40/35 28/33/29
f 30/35/26 36/42/32 35/41/36 29/34/30
f 31/36/31 37/43/37 42/49/38 36/42/32
f 32/38/33 38/45/39 37/44/37 31/37/31
f 33/39/34 39/46/40 38/45/39 32/38/33
f 34/40/35 40/47/41 39/46/40 33/39/34
f 35/41/36 41/48/42 40/47/41 34/40/35
f 36/42/32 42/49/38 41/48/42 35/41/36
f 37/43/37 43/50/43 48/56/44 42/49/38
f 38/45/39 44/52/45 43/51/43 37/44/37
f 39/46/40 45/53/46 44/52/45 38/45/39
f 40/47/41 46/54/47 45/53/46 39/46/40
f 41/48/42 47/55/48 46/54/47 40/47/41
f 42/49/38 48/56/44 47/55/48 41/48/42
f 43/50/43 49/57/49 54/63/50 48/56/44
f 44/52/45 50/59/51 49/58/49 43/51/43
f 45/53/46 51/60/52 50/59/51 44/52/45
f 46/54/47 52/61/53 51/60/52 45/53/46
f 47/55/48 53/62/54 52/61/53 46/54/47
f 48/56/44 54/63/50 53/62/54 47/55/48
f 49/57/49 55/64/55 60/70/56 54/63/50
f 50/59/51 56/66/57 55/65/55 49/58/49
f 51/60/52 57/67/58 56/66/57 50/59/51
f 52/61/53 58/68/59 57/67/58 51/60/52
f 53/62/54 59/69/60 58/68/59 52/61/53
f 54/63/50 60/70/56 59/69/60 53/62/54
f 55/64/55 61/71/61 66/77/62 60/70/56
f 56/66/57 62/73/63 61/72/61 55/65/55
f 57/67/58 63/74/64 62/73/63 56/66/57
f 58/68/59 64/75/65 63/74/64 57/67/58
f 59/69/60 65/76/66 64/75/65 58/68/59
f 60/70/56 66/77/62 65/76/66 59/69/60
f 61/71/61 67/78/67 72/84/68 66/77/62
f 62/73/63 68/80/69 67/79/67 61/72/61
f 63/74/64 69/81/70 68/80/69 62/73/63
f 64/75/65 70/82/71 69/81/70 63/74/64
f 65/76/66 71/83/72 70/82/71 64/75/65
f 66/77/62 72/84/68 71/83/72 65/76/66
f 67/78/67 73/85/73 78/91/74 72/84/68
f 68/80/69 74/87/75 73/86/73 67/79/67
f 69/81/70 75/88/76 74/87/75 68/80/69
f 70/82/71 76/89/77 75/88/76 69/81/70
f 71/83/72 77/90/78 76/89/77 70/82/71
f 72/84/68 78/91/74 77/90/78 71/83/72
f 73/85/73 79/92/79 84/98/80 78/91/74
f 74/87/75 80/94/81 79/93/79 73/86/73
f 75/88/76 81/95/82 80/94/81 74/87/75
f 76/89/77 82/96/83 81/95/82 75/88/76
f 77/90/78 83/97/84 82/96/83 76/89/77
f 78/91/74 84/98/80 83/97/84 77/90/78
f 79/92/79 85/99/85 90/105/86 84/98/80
f 80/94/81 86/101/87 85/100/85 79/93/79
f 81/95/82 87/102/88 86/101/87 80/94/81
f 82/96/83 88/103/89 87/102/88 81/95/82
f 83/97/84 89/104/90 88/103/89 82/96/83
f 84/98/80 90/105/86 89/104/90 83/97/84
f 85/99/85 91/106/91 96/112/92 90/105/86
f 86/101/87 92/108/93 91/107/91 85/100/85
f 87/102/88 93/109/94 92/108/93 86/101/87
f 88/103/89 94/110/95 93/109/94 87/102/88
f 89/104/90 95/111/96 94/110/95 88/103/89
f 90/105/86 96/112/92 95/111/96 89/104/90
f 91/106/91 97/113/97 102/119/98 96/112/92
f 92/108/93 98/115/99 97/114/97 91/107/91
f 93/109/94 99/116/100 98/115/99 92/108/93
f 94/110/95 100/117/101 99/116/100 93/109/94
f 95/111/96 101/118/102 100/117/101 94/110/95
f 96/112/92 102/119/98 101/118/102 95/111/96
