# Blender 3.4.1
# www.blender.org
mtllib mebius2scissored4.mtl
o BezierCircle.004
v -16.184101 2.324010 -2.131628
v -16.147274 2.324010 -1.708965
v -15.779005 -1.918630 2.517663
v -15.779005 -2.342895 2.517663
v -15.815831 -2.342895 2.095001
v -16.184101 1.899745 -2.131628
v -14.412200 2.324010 -2.255328
v -14.388428 2.324010 -1.831732
v -14.150692 -1.918631 2.404245
v -14.150692 -2.342895 2.404245
v -14.174464 -2.342895 1.980648
v -14.412200 1.899746 -2.255329
v -12.592629 2.324010 -2.332806
v -12.578959 2.324010 -1.908763
v -12.442253 -1.918630 2.331676
v -12.442253 -2.342895 2.331676
v -12.455923 -2.342895 1.907633
v -12.592629 1.899745 -2.332806
v -10.728063 2.324009 -2.373801
v -10.721871 2.324009 -1.949583
v -10.659963 -1.918630 2.292607
v -10.659962 -2.342894 2.292607
v -10.666153 -2.342894 1.868389
v -10.728062 1.899745 -2.373801
v -8.821469 2.324010 -2.387632
v -8.820408 2.324010 -1.963369
v -8.809798 -1.918630 2.279258
v -8.809797 -2.342895 2.279258
v -8.810859 -2.342895 1.854996
v -8.821468 1.899745 -2.387632
v -6.876104 2.324009 -2.383309
v -6.878045 2.324010 -1.959049
v -6.897453 -1.918630 2.283550
v -6.897453 -2.342894 2.283550
v -6.895513 -2.342895 1.859290
v -6.876104 1.899745 -2.383308
v -4.895486 2.324009 -2.369617
v -4.898476 2.324010 -1.945363
v -4.928361 -1.918630 2.297174
v -4.928360 -2.342894 2.297174
v -4.925372 -2.342895 1.872920
v -4.895486 1.899745 -2.369617
v -2.883353 2.324009 -2.355179
v -2.885570 2.324010 -1.930922
v -2.907731 -1.918630 2.311661
v -2.907730 -2.342894 2.311662
v -2.905514 -2.342895 1.887404
v -2.883353 1.899745 -2.355179
v -0.842101 2.324010 -2.348488
v -0.842102 2.324010 -1.924225
v -0.842106 -1.918630 2.318417
v -0.842105 -2.342895 2.318417
v -0.842105 -2.342895 1.894153
v -0.842101 1.899745 -2.348488
v 1.199968 2.471629 -2.197567
v 1.202179 2.443881 -1.774218
v 1.222839 -2.067158 2.181805
v 1.222695 -2.490514 2.154057
v 1.220484 -2.462766 1.730706
v 1.199824 2.048273 -2.225316
v 3.213562 2.608624 -2.045082
v 3.216525 2.553246 -1.624458
v 3.242255 -2.206875 2.028022
v 3.241866 -2.627509 1.972646
v 3.238903 -2.572132 1.552022
v 3.213172 2.187990 -2.100457
v 5.194182 2.734407 -1.883241
v 5.196086 2.651637 -1.467132
v 5.211335 -2.337180 1.866254
v 5.210957 -2.753292 1.783485
v 5.209054 -2.670522 1.367378
v 5.193804 2.318295 -1.966009
v 7.135549 2.848441 -1.704180
v 7.134524 2.738633 -1.294375
v 7.127023 -2.457519 1.705617
v 7.127298 -2.867326 1.595810
v 7.128323 -2.757519 1.186004
v 7.135824 2.438634 -1.813988
v 9.031099 2.950238 -1.499995
v 9.025237 2.813862 -1.098289
v 8.986514 -2.567374 1.555161
v 8.988504 -2.969123 1.418801
v 8.994367 -2.832747 1.017095
v 9.033090 2.548489 -1.636354
v 10.873923 3.039360 -1.262764
v 10.861294 2.877001 -0.870999
v 10.787308 -2.666276 1.423910
v 10.792540 -3.058245 1.261636
v 10.805169 -2.895886 0.869870
v 10.879155 2.647391 -1.425038
v 12.656675 3.115427 -0.984624
v 12.635354 2.927780 -0.604713
v 12.527283 -2.753801 1.320895
v 12.537798 -3.134312 1.133543
v 12.559120 -2.946665 0.753630
v 12.667191 2.734916 -1.171977
v 14.371483 3.178113 -0.657861
v 14.339589 2.965981 -0.291824
v 14.204792 -2.829574 1.255230
v 14.223207 -3.196998 1.043898
v 14.255099 -2.984866 0.677862
v 14.389896 2.810689 -0.869193
v 16.009819 3.227149 -0.275055
v 15.965579 2.991441 0.074923
v 15.818780 -2.893271 1.236226
v 15.848340 -3.246034 1.002379
v 15.892580 -3.010326 0.652400
v 16.039379 2.874387 -0.508902
vn -0.0618 0.7032 -0.7083
vn -0.0398 0.7041 -0.7090
vn -0.0518 -0.3815 -0.9229
vn -0.0803 -0.3812 -0.9210
vn 0.0329 0.9254 0.3776
vn 0.0213 0.9250 0.3793
vn 0.0801 0.3842 0.9198
vn 0.0517 0.3839 0.9219
vn 0.0610 -0.7110 0.7005
vn 0.0394 -0.7102 0.7029
vn -0.0335 -0.9224 -0.3848
vn -0.0216 -0.9227 -0.3849
vn -0.0229 0.7048 -0.7090
vn -0.0298 -0.3818 -0.9238
vn 0.0123 0.9248 0.3803
vn 0.0297 0.3836 0.9230
vn 0.0227 -0.7094 0.7044
vn -0.0124 -0.9230 -0.3846
vn -0.0104 0.7055 -0.7087
vn -0.0135 -0.3821 -0.9240
vn 0.0056 0.9245 0.3811
vn 0.0135 0.3833 0.9235
vn 0.0103 -0.7088 0.7054
vn -0.0056 -0.9232 -0.3842
vn -0.0018 0.7060 -0.7082
vn -0.0023 -0.3823 -0.9240
vn 0.0010 0.9243 0.3817
vn 0.0023 0.3831 0.9237
vn 0.0018 -0.7082 0.7060
vn -0.0010 -0.9235 -0.3837
vn 0.0032 0.7066 -0.7076
vn 0.0042 -0.3825 -0.9240
vn -0.0017 0.9241 0.3822
vn -0.0042 0.3829 0.9238
vn -0.0032 -0.7076 0.7066
vn 0.0018 -0.9237 -0.3832
vn 0.0050 0.7071 -0.7071
vn 0.0065 -0.3827 -0.9239
vn -0.0027 0.9239 0.3826
vn -0.0065 0.3827 0.9239
vn -0.0050 -0.7071 0.7071
vn 0.0027 -0.9239 -0.3827
vn 0.0037 0.7075 -0.7067
vn 0.0048 -0.3829 -0.9238
vn -0.0020 0.9237 0.3831
vn -0.0048 0.3825 0.9239
vn -0.0037 -0.7067 0.7075
vn 0.0020 -0.9240 -0.3823
vn 0.0022 0.7027 -0.7115
vn 0.0177 -0.3730 -0.9277
vn -0.0190 0.9192 0.3934
vn 0.0175 0.3724 0.9279
vn 0.0023 -0.7013 0.7128
vn -0.0189 -0.9198 -0.3920
vn -0.0034 0.7520 -0.6591
vn 0.0321 -0.3219 -0.9462
vn -0.0347 0.8959 0.4429
vn 0.0417 0.3216 0.9459
vn 0.0036 -0.7511 0.6602
vn -0.0392 -0.8963 -0.4418
vn -0.0042 0.7931 -0.6091
vn 0.0308 -0.2592 -0.9653
vn -0.0341 0.8652 0.5002
vn 0.0444 0.2593 0.9648
vn 0.0044 -0.7930 0.6092
vn -0.0412 -0.8652 -0.4997
vn -0.0024 0.8307 -0.5567
vn 0.0338 -0.1954 -0.9801
vn -0.0359 0.8309 0.5552
vn 0.0431 0.1957 0.9797
vn 0.0026 -0.8316 0.5554
vn -0.0411 -0.8304 -0.5557
vn 0.0016 0.8648 -0.5021
vn 0.0415 -0.1309 -0.9905
vn -0.0410 0.7931 0.6077
vn 0.0374 0.1313 0.9906
vn -0.0013 -0.8666 0.4991
vn -0.0380 -0.7919 -0.6094
vn 0.0070 0.8953 -0.4455
vn 0.0545 -0.0659 -0.9963
vn -0.0502 0.7519 0.6574
vn 0.0266 0.0663 0.9974
vn -0.0066 -0.8978 0.4404
vn -0.0310 -0.7500 -0.6607
vn 0.0131 0.9220 -0.3871
vn 0.0731 -0.0007 -0.9973
vn -0.0646 0.7075 0.7038
vn 0.0105 0.0009 0.9999
vn -0.0125 -0.9251 0.3794
vn -0.0191 -0.7049 -0.7091
vn 0.0193 0.9448 -0.3271
vn 0.0979 0.0643 -0.9931
vn -0.0854 0.6601 0.7463
vn -0.0115 -0.0646 0.9978
vn -0.0182 -0.9484 0.3165
vn -0.0010 -0.6567 -0.7541
vn 0.0244 0.9637 -0.2658
vn 0.1293 0.1290 -0.9832
vn -0.1137 0.6099 0.7843
vn -0.0399 -0.1299 0.9907
vn -0.0226 -0.9675 0.2517
vn 0.0244 -0.6057 -0.7953
vn 0.0273 0.9787 -0.2036
vn 0.1676 0.1930 -0.9668
vn -0.1508 0.5571 0.8166
vn -0.0749 -0.1947 0.9780
vn -0.0244 -0.9824 0.1854
vn 0.0585 -0.5520 -0.8318
vt 0.666667 1.000000
vt 0.666667 0.000000
vt 0.666667 0.166667
vt 0.666667 0.333333
vt 0.666667 0.500000
vt 0.666667 0.666667
vt 0.666667 0.833333
vt 0.677083 1.000000
vt 0.677083 0.000000
vt 0.677083 0.166667
vt 0.677083 0.333333
vt 0.677083 0.500000
vt 0.677083 0.666667
vt 0.677083 0.833333
vt 0.687500 1.000000
vt 0.687500 0.000000
vt 0.687500 0.166667
vt 0.687500 0.333333
vt 0.687500 0.500000
vt 0.687500 0.666667
vt 0.687500 0.833333
vt 0.697917 1.000000
vt 0.697917 0.000000
vt 0.697917 0.166667
vt 0.697917 0.333333
vt 0.697917 0.500000
vt 0.697917 0.666667
vt 0.697917 0.833333
vt 0.708333 1.000000
vt 0.708333 0.000000
vt 0.708333 0.166667
vt 0.708333 0.333333
vt 0.708333 0.500000
vt 0.708333 0.666667
vt 0.708333 0.833333
vt 0.718750 1.000000
vt 0.718750 0.000000
vt 0.718750 0.166667
vt 0.718750 0.333333
vt 0.718750 0.500000
vt 0.718750 0.666667
vt 0.718750 0.833333
vt 0.729167 1.000000
vt 0.729167 0.000000
vt 0.729167 0.166667
vt 0.729167 0.333333
vt 0.729167 0.500000
vt 0.729167 0.666667
vt 0.729167 0.833333
vt 0.739583 1.000000
vt 0.739583 0.000000
vt 0.739583 0.166667
vt 0.739583 0.333333
vt 0.739583 0.500000
vt 0.739583 0.666667
vt 0.739583 0.833333
vt 0.750000 1.000000
vt 0.750000 0.000000
vt 0.750000 0.166667
vt 0.750000 0.333333
vt 0.750000 0.500000
vt 0.750000 0.666667
vt 0.750000 0.833333
vt 0.760417 1.000000
vt 0.760417 0.000000
vt 0.760417 0.166667
vt 0.760417 0.333333
vt 0.760417 0.500000
vt 0.760417 0.666667
vt 0.760417 0.833333
vt 0.770833 1.000000
vt 0.770833 0.000000
vt 0.770833 0.166667
vt 0.770833 0.333333
vt 0.770833 0.500000
vt 0.770833 0.666667
vt 0.770833 0.833333
vt 0.781250 1.000000
vt 0.781250 0.000000
vt 0.781250 0.166667
vt 0.781250 0.333333
vt 0.781250 0.500000
vt 0.781250 0.666667
vt 0.781250 0.833333
vt 0.791667 1.000000
vt 0.791667 0.000000
vt 0.791667 0.166667
vt 0.791667 0.333333
vt 0.791667 0.500000
vt 0.791667 0.666667
vt 0.791667 0.833333
vt 0.802083 1.000000
vt 0.802083 0.000000
vt 0.802083 0.166667
vt 0.802083 0.333333
vt 0.802083 0.500000
vt 0.802083 0.666667
vt 0.802083 0.833333
vt 0.812500 1.000000
vt 0.812500 0.000000
vt 0.812500 0.166667
vt 0.812500 0.333333
vt 0.812500 0.500000
vt 0.812500 0.666667
vt 0.812500 0.833333
vt 0.822917 1.000000
vt 0.822917 0.000000
vt 0.822917 0.166667
vt 0.822917 0.333333
vt 0.822917 0.500000
vt 0.822917 0.666667
vt 0.822917 0.833333
vt 0.833333 1.000000
vt 0.833333 0.000000
vt 0.833333 0.166667
vt 0.833333 0.333333
vt 0.833333 0.500000
vt 0.833333 0.666667
vt 0.833333 0.833333
vt 0.843750 1.000000
vt 0.843750 0.000000
vt 0.843750 0.166667
vt 0.843750 0.333333
vt 0.843750 0.500000
vt 0.843750 0.666667
vt 0.843750 0.833333
s 1
f 1/1/1 7/8/2 12/14/3 6/7/4
f 2/3/5 8/10/6 7/9/2 1/2/1
f 3/4/7 9/11/8 8/10/6 2/3/5
f 4/5/9 10/12/10 9/11/8 3/4/7
f 5/6/11 11/13/12 10/12/10 4/5/9
f 6/7/4 12/14/3 11/13/12 5/6/11
f 7/8/2 13/15/13 18/21/14 12/14/3
f 8/10/6 14/17/15 13/16/13 7/9/2
f 9/11/8 15/18/16 14/17/15 8/10/6
f 10/12/10 16/19/17 15/18/16 9/11/8
f 11/13/12 17/20/18 16/19/17 10/12/10
f 12/14/3 18/21/14 17/20/18 11/13/12
f 13/15/13 19/22/19 24/28/20 18/21/14
f 14/17/15 20/24/21 19/23/19 13/16/13
f 15/18/16 21/25/22 20/24/21 14/17/15
f 16/19/17 22/26/23 21/25/22 15/18/16
f 17/20/18 23/27/24 22/26/23 16/19/17
f 18/21/14 24/28/20 23/27/24 17/20/18
f 19/22/19 25/29/25 30/35/26 24/28/20
f 20/24/21 26/31/27 25/30/25 19/23/19
f 21/25/22 27/32/28 26/31/27 20/24/21
f 22/26/23 28/33/29 27/32/28 21/25/22
f 23/27/24 29/34/30 28/33/29 22/26/23
f 24/28/20 30/35/26 29/34/30 23/27/24
f 25/29/25 31/36/31 36/42/32 30/35/26
f 26/31/27 32/38/33 31/37/31 25/30/25
f 27/32/28 33/39/34 32/38/33 26/31/27
f 28/33/29 34/40/35 33/39/34 27/32/28
f 29/34/30 35/41/36 34/40/35 28/33/29
f 30/35/26 36/42/32 35/41/36 29/34/30
f 31/36/31 37/43/37 42/49/38 36/42/32
f 32/38/33 38/45/39 37/44/37 31/37/31
f 33/39/34 39/46/40 38/45/39 32/38/33
f 34/40/35 40/47/41 39/46/40 33/39/34
f 35/41/36 41/48/42 40/47/41 34/40/35
f 36/42/32 42/49/38 41/48/42 35/41/36
f 37/43/37 43/50/43 48/56/44 42/49/38
f 38/45/39 44/52/45 43/51/43 37/44/37
f 39/46/40 45/53/46 44/52/45 38/45/39
f 40/47/41 46/54/47 45/53/46 39/46/40
f 41/48/42 47/55/48 46/54/47 40/47/41
f 42/49/38 48/56/44 47/55/48 41/48/42
f 43/50/43 49/57/49 54/63/50 48/56/44
f 44/52/45 50/59/51 49/58/49 43/51/43
f 45/53/46 51/60/52 50/59/51 44/52/45
f 46/54/47 52/61/53 51/60/52 45/53/46
f 47/55/48 53/62/54 52/61/53 46/54/47
f 48/56/44 54/63/50 53/62/54 47/55/48
f 49/57/49 55/64/55 60/70/56 54/63/50
f 50/59/51 56/66/57 55/65/55 49/58/49
f 51/60/52 57/67/58 56/66/57 50/59/51
f 52/61/53 58/68/59 57/67/58 51/60/52
f 53/62/54 59/69/60 58/68/59 52/61/53
f 54/63/50 60/70/56 59/69/60 53/62/54
f 55/64/55 61/71/61 66/77/62 60/70/56
f 56/66/57 62/73/63 61/72/61 55/65/55
f 57/67/58 63/74/64 62/73/63 56/66/57
f 58/68/59 64/75/65 63/74/64 57/67/58
f 59/69/60 65/76/66 64/75/65 58/68/59
f 60/70/56 66/77/62 65/76/66 59/69/60
f 61/71/61 67/78/67 72/84/68 66/77/62
f 62/73/63 68/80/69 67/79/67 61/72/61
f 63/74/64 69/81/70 68/80/69 62/73/63
f 64/75/65 70/82/71 69/81/70 63/74/64
f 65/76/66 71/83/72 70/82/71 64/75/65
f 66/77/62 72/84/68 71/83/72 65/76/66
f 67/78/67 73/85/73 78/91/74 72/84/68
f 68/80/69 74/87/75 73/86/73 67/79/67
f 69/81/70 75/88/76 74/87/75 68/80/69
f 70/82/71 76/89/77 75/88/76 69/81/70
f 71/83/72 77/90/78 76/89/77 70/82/71
f 72/84/68 78/91/74 77/90/78 71/83/72
f 73/85/73 79/92/79 84/98/80 78/91/74
f 74/87/75 80/94/81 79/93/79 73/86/73
f 75/88/76 81/95/82 80/94/81 74/87/75
f 76/89/77 82/96/83 81/95/82 75/88/76
f 77/90/78 83/97/84 82/96/83 76/89/77
f 78/91/74 84/98/80 83/97/84 77/90/78
f 79/92/79 85/99/85 90/105/86 84/98/80
f 80/94/81 86/101/87 85/100/85 79/93/79
f 81/95/82 87/102/88 86/101/87 80/94/81
f 82/96/83 88/103/89 87/102/88 81/95/82
f 83/97/84 89/104/90 88/103/89 82/96/83
f 84/98/80 90/105/86 89/104/90 83/97/84
f 85/99/85 91/106/91 96/112/92 90/105/86
f 86/101/87 92/108/93 91/107/91 85/100/85
f 87/102/88 93/109/94 92/108/93 86/101/87
f 88/103/89 94/110/95 93/109/94 87/102/88
f 89/104/90 95/111/96 94/110/95 88/103/89
f 90/105/86 96/112/92 95/111/96 89/104/90
f 91/106/91 97/113/97 102/119/98 96/112/92
f 92/108/93 98/115/99 97/114/97 91/107/91
f 93/109/94 99/116/100 98/115/99 92/108/93
f 94/110/95 100/117/101 99/116/100 93/109/94
f 95/111/96 101/118/102 100/117/101 94/110/95
f 96/112/92 102/119/98 101/118/102 95/111/96
f 97/113/97 103/120/103 108/126/104 102/119/98
f 98/115/99 104/122/105 103/121/103 97/114/97
f 99/116/100 105/123/106 104/122/105 98/115/99
f 100/117/101 106/124/107 105/123/106 99/116/100
f 101/118/102 107/125/108 106/124/107 100/117/101
f 102/119/98 108/126/104 107/125/108 101/118/102
