# Blender 3.4.1
# www.blender.org
mtllib mebius2scissored2.mtl
o BezierCircle.002
v 15.362385 -2.324470 2.108769
v 15.362386 -1.900206 2.108769
v 14.994115 2.342435 -2.117859
v 14.957288 2.342434 -2.540522
v 14.957288 1.918170 -2.540522
v 15.325558 -2.324470 1.686107
v 13.590484 -2.324470 2.232469
v 13.590484 -1.900206 2.232469
v 13.352748 2.342434 -2.003506
v 13.328974 2.342434 -2.427103
v 13.328974 1.918170 -2.427104
v 13.566710 -2.324470 1.808873
v 11.770913 -2.324470 2.309947
v 11.770913 -1.900206 2.309947
v 11.634207 2.342435 -1.930492
v 11.620536 2.342434 -2.354535
v 11.620536 1.918170 -2.354534
v 11.757241 -2.324470 1.885904
v 9.906344 -2.324470 2.350942
v 9.906345 -1.900206 2.350942
v 9.844436 2.342435 -1.891247
v 9.838245 2.342434 -2.315466
v 9.838244 1.918170 -2.315465
v 9.900154 -2.324470 1.926724
v 7.999752 -2.324470 2.364774
v 7.999752 -1.900206 2.364774
v 7.989142 2.342435 -1.877854
v 7.988081 2.342434 -2.302117
v 7.988081 1.918170 -2.302117
v 7.998691 -2.324470 1.940511
v 6.054388 -2.324470 2.360448
v 6.054388 -1.900206 2.360448
v 6.073796 2.342435 -1.882148
v 6.075737 2.342435 -2.306408
v 6.075737 1.918171 -2.306408
v 6.056329 -2.324470 1.936189
v 4.073771 -2.324470 2.346758
v 4.073771 -1.900206 2.346758
v 4.103656 2.342435 -1.895779
v 4.106644 2.342434 -2.320033
v 4.106644 1.918170 -2.320032
v 4.076759 -2.324470 1.922504
v 2.061637 -2.324470 2.332323
v 2.061637 -1.900206 2.332320
v 2.083798 2.342435 -1.910262
v 2.086013 2.342434 -2.334521
v 2.086013 1.918170 -2.334521
v 2.063853 -2.324470 1.908063
v 0.020385 -2.324470 2.325629
v 0.020385 -1.900206 2.325631
v 0.020389 2.342435 -1.917013
v 0.020389 2.342434 -2.341277
v 0.020389 1.918171 -2.341276
v 0.020385 -2.324470 1.901366
v -2.020091 -2.166858 2.479935
v -2.020236 -1.743503 2.452187
v -2.043794 2.212571 -2.058792
v -2.046005 2.184823 -2.482141
v -2.045861 1.761467 -2.454393
v -2.022302 -2.194607 2.056584
v -4.030987 -1.999930 2.631360
v -4.031377 -1.579296 2.575985
v -4.064909 2.073273 -2.184018
v -4.067873 2.017895 -2.604642
v -4.067483 1.597260 -2.549267
v -4.033951 -2.055308 2.210738
v -6.011733 -1.824399 2.770840
v -6.012111 -1.408287 2.688071
v -6.034935 1.925134 -2.300695
v -6.036839 1.842364 -2.716803
v -6.036460 1.426252 -2.634034
v -6.013637 -1.907169 2.354733
v -7.960286 -1.641017 2.889202
v -7.960011 -1.231210 2.779395
v -7.947020 1.768790 -2.416743
v -7.945995 1.658982 -2.826549
v -7.946270 1.249174 -2.716742
v -7.959261 -1.750825 2.479395
v -9.874707 -1.450570 2.977104
v -9.872716 -1.048821 2.840744
v -9.794193 1.604910 -2.539922
v -9.788331 1.468534 -2.941627
v -9.790322 1.066786 -2.805266
v -9.868845 -1.586945 2.575398
v -11.753188 -1.253873 3.024926
v -11.747955 -0.861904 2.862650
v -11.569340 1.434196 -2.677749
v -11.556709 1.271837 -3.069515
v -11.561941 0.879868 -2.907239
v -11.740558 -1.416231 2.633161
v -13.594056 -1.051768 3.022642
v -13.583541 -0.671257 2.835290
v -13.265174 1.257379 -2.837365
v -13.243853 1.069732 -3.217278
v -13.254368 0.689221 -3.029925
v -13.572734 -1.239415 2.642729
v -15.395747 -0.845120 2.959646
v -15.377335 -0.477697 2.748315
v -14.874268 1.075216 -3.025366
v -14.842375 0.863084 -3.391402
v -14.860789 0.495661 -3.180070
v -15.363854 -1.057252 2.593611
vn 0.0618 -0.7032 0.7083
vn 0.0398 -0.7041 0.7090
vn -0.0213 -0.9250 -0.3793
vn -0.0329 -0.9254 -0.3776
vn 0.0803 0.3812 0.9210
vn 0.0518 0.3815 0.9229
vn 0.0335 0.9224 0.3848
vn 0.0216 0.9227 0.3849
vn -0.0610 0.7110 -0.7005
vn -0.0394 0.7102 -0.7029
vn -0.0801 -0.3842 -0.9198
vn -0.0517 -0.3839 -0.9219
vn 0.0229 -0.7048 0.7090
vn -0.0123 -0.9248 -0.3803
vn 0.0298 0.3818 0.9238
vn 0.0124 0.9230 0.3846
vn -0.0227 0.7094 -0.7044
vn -0.0297 -0.3836 -0.9230
vn 0.0104 -0.7055 0.7087
vn -0.0056 -0.9245 -0.3811
vn 0.0135 0.3820 0.9240
vn 0.0056 0.9232 0.3842
vn -0.0103 0.7088 -0.7054
vn -0.0135 -0.3833 -0.9235
vn 0.0018 -0.7060 0.7082
vn -0.0010 -0.9243 -0.3817
vn 0.0023 0.3823 0.9240
vn 0.0010 0.9235 0.3837
vn -0.0018 0.7082 -0.7060
vn -0.0023 -0.3831 -0.9237
vn -0.0032 -0.7066 0.7076
vn 0.0017 -0.9241 -0.3822
vn -0.0042 0.3825 0.9240
vn -0.0018 0.9237 0.3832
vn 0.0032 0.7076 -0.7066
vn 0.0042 -0.3829 -0.9238
vn -0.0050 -0.7071 0.7071
vn 0.0027 -0.9239 -0.3826
vn -0.0065 0.3827 0.9239
vn -0.0027 0.9239 0.3827
vn 0.0050 0.7071 -0.7071
vn 0.0065 -0.3827 -0.9239
vn -0.0037 -0.7075 0.7067
vn 0.0020 -0.9237 -0.3831
vn -0.0048 0.3829 0.9238
vn -0.0020 0.9240 0.3823
vn 0.0037 0.7067 -0.7075
vn 0.0048 -0.3825 -0.9239
vn -0.0023 -0.7130 0.7012
vn -0.0176 -0.9275 -0.3734
vn 0.0191 0.3930 0.9193
vn -0.0176 0.9281 0.3720
vn -0.0022 0.7114 -0.7028
vn 0.0188 -0.3925 -0.9196
vn 0.0038 -0.6601 0.7512
vn -0.0386 -0.9459 -0.3220
vn 0.0418 0.4425 0.8958
vn -0.0352 0.9463 0.3215
vn -0.0040 0.6593 -0.7519
vn 0.0321 -0.4421 -0.8964
vn 0.0055 -0.6091 0.7931
vn -0.0394 -0.9651 -0.2589
vn 0.0437 0.5000 0.8649
vn -0.0358 0.9651 0.2595
vn -0.0057 0.6093 -0.7930
vn 0.0316 -0.5000 -0.8655
vn 0.0038 -0.5555 0.8315
vn -0.0392 -0.9800 -0.1949
vn 0.0421 0.5552 0.8306
vn -0.0377 0.9798 0.1963
vn -0.0040 0.5566 -0.8307
vn 0.0350 -0.5557 -0.8306
vn -0.0022 -0.4995 0.8663
vn -0.0388 -0.9907 -0.1301
vn 0.0370 0.6081 0.7930
vn -0.0401 0.9904 0.1322
vn 0.0019 0.5016 -0.8651
vn 0.0420 -0.6091 -0.7920
vn -0.0131 -0.4415 0.8972
vn -0.0391 -0.9971 -0.0649
vn 0.0288 0.6582 0.7523
vn -0.0421 0.9968 0.0673
vn 0.0127 0.4445 -0.8957
vn 0.0525 -0.6600 -0.7495
vn -0.0298 -0.3816 0.9238
vn -0.0410 -0.9992 0.0004
vn 0.0178 0.7056 0.7084
vn -0.0428 0.9991 0.0020
vn 0.0292 0.3854 -0.9223
vn 0.0659 -0.7080 -0.7031
vn -0.0531 -0.3202 0.9459
vn -0.0457 -0.9968 0.0654
vn 0.0045 0.7498 0.6616
vn -0.0412 0.9971 -0.0635
vn 0.0523 0.3246 -0.9444
vn 0.0820 -0.7530 -0.6529
vn -0.0839 -0.2576 0.9626
vn -0.0544 -0.9901 0.1295
vn -0.0106 0.7909 0.6119
vn -0.0360 0.9910 -0.1287
vn 0.0829 0.2623 -0.9614
vn 0.1000 -0.7948 -0.5986
vt 0.166667 1.000000
vt 0.166667 0.000000
vt 0.166667 0.166667
vt 0.166667 0.333333
vt 0.166667 0.500000
vt 0.166667 0.666667
vt 0.166667 0.833333
vt 0.177083 1.000000
vt 0.177083 0.000000
vt 0.177083 0.166667
vt 0.177083 0.333333
vt 0.177083 0.500000
vt 0.177083 0.666667
vt 0.177083 0.833333
vt 0.187500 1.000000
vt 0.187500 0.000000
vt 0.187500 0.166667
vt 0.187500 0.333333
vt 0.187500 0.500000
vt 0.187500 0.666667
vt 0.187500 0.833333
vt 0.197917 1.000000
vt 0.197917 0.000000
vt 0.197917 0.166667
vt 0.197917 0.333333
vt 0.197917 0.500000
vt 0.197917 0.666667
vt 0.197917 0.833333
vt 0.208333 1.000000
vt 0.208333 0.000000
vt 0.208333 0.166667
vt 0.208333 0.333333
vt 0.208333 0.500000
vt 0.208333 0.666667
vt 0.208333 0.833333
vt 0.218750 1.000000
vt 0.218750 0.000000
vt 0.218750 0.166667
vt 0.218750 0.333333
vt 0.218750 0.500000
vt 0.218750 0.666667
vt 0.218750 0.833333
vt 0.229167 1.000000
vt 0.229167 0.000000
vt 0.229167 0.166667
vt 0.229167 0.333333
vt 0.229167 0.500000
vt 0.229167 0.666667
vt 0.229167 0.833333
vt 0.239583 1.000000
vt 0.239583 0.000000
vt 0.239583 0.166667
vt 0.239583 0.333333
vt 0.239583 0.500000
vt 0.239583 0.666667
vt 0.239583 0.833333
vt 0.250000 1.000000
vt 0.250000 0.000000
vt 0.250000 0.166667
vt 0.250000 0.333333
vt 0.250000 0.500000
vt 0.250000 0.666667
vt 0.250000 0.833333
vt 0.260417 1.000000
vt 0.260417 0.000000
vt 0.260417 0.166667
vt 0.260417 0.333333
vt 0.260417 0.500000
vt 0.260417 0.666667
vt 0.260417 0.833333
vt 0.270833 1.000000
vt 0.270833 0.000000
vt 0.270833 0.166667
vt 0.270833 0.333333
vt 0.270833 0.500000
vt 0.270833 0.666667
vt 0.270833 0.833333
vt 0.281250 1.000000
vt 0.281250 0.000000
vt 0.281250 0.166667
vt 0.281250 0.333333
vt 0.281250 0.500000
vt 0.281250 0.666667
vt 0.281250 0.833333
vt 0.291667 1.000000
vt 0.291667 0.000000
vt 0.291667 0.166667
vt 0.291667 0.333333
vt 0.291667 0.500000
vt 0.291667 0.666667
vt 0.291667 0.833333
vt 0.302083 1.000000
vt 0.302083 0.000000
vt 0.302083 0.166667
vt 0.302083 0.333333
vt 0.302083 0.500000
vt 0.302083 0.666667
vt 0.302083 0.833333
vt 0.312500 1.000000
vt 0.312500 0.000000
vt 0.312500 0.166667
vt 0.312500 0.333333
vt 0.312500 0.500000
vt 0.312500 0.666667
vt 0.312500 0.833333
vt 0.322917 1.000000
vt 0.322917 0.000000
vt 0.322917 0.166667
vt 0.322917 0.333333
vt 0.322917 0.500000
vt 0.322917 0.666667
vt 0.322917 0.833333
vt 0.333333 1.000000
vt 0.333333 0.000000
vt 0.333333 0.166667
vt 0.333333 0.333333
vt 0.333333 0.500000
vt 0.333333 0.666667
vt 0.333333 0.833333
s 1
f 1/1/1 7/8/2 12/14/3 6/7/4
f 2/3/5 8/10/6 7/9/2 1/2/1
f 3/4/7 9/11/8 8/10/6 2/3/5
f 4/5/9 10/12/10 9/11/8 3/4/7
f 5/6/11 11/13/12 10/12/10 4/5/9
f 6/7/4 12/14/3 11/13/12 5/6/11
f 7/8/2 13/15/13 18/21/14 12/14/3
f 8/10/6 14/17/15 13/16/13 7/9/2
f 9/11/8 15/18/16 14/17/15 8/10/6
f 10/12/10 16/19/17 15/18/16 9/11/8
f 11/13/12 17/20/18 16/19/17 10/12/10
f 12/14/3 18/21/14 17/20/18 11/13/12
f 13/15/13 19/22/19 24/28/20 18/21/14
f 14/17/15 20/24/21 19/23/19 13/16/13
f 15/18/16 21/25/22 20/24/21 14/17/15
f 16/19/17 22/26/23 21/25/22 15/18/16
f 17/20/18 23/27/24 22/26/23 16/19/17
f 18/21/14 24/28/20 23/27/24 17/20/18
f 19/22/19 25/29/25 30/35/26 24/28/20
f 20/24/21 26/31/27 25/30/25 19/23/19
f 21/25/22 27/32/28 26/31/27 20/24/21
f 22/26/23 28/33/29 27/32/28 21/25/22
f 23/27/24 29/34/30 28/33/29 22/26/23
f 24/28/20 30/35/26 29/34/30 23/27/24
f 25/29/25 31/36/31 36/42/32 30/35/26
f 26/31/27 32/38/33 31/37/31 25/30/25
f 27/32/28 33/39/34 32/38/33 26/31/27
f 28/33/29 34/40/35 33/39/34 27/32/28
f 29/34/30 35/41/36 34/40/35 28/33/29
f 30/35/26 36/42/32 35/41/36 29/34/30
f 31/36/31 37/43/37 42/49/38 36/42/32
f 32/38/33 38/45/39 37/44/37 31/37/31
f 33/39/34 39/46/40 38/45/39 32/38/33
f 34/40/35 40/47/41 39/46/40 33/39/34
f 35/41/36 41/48/42 40/47/41 34/40/35
f 36/42/32 42/49/38 41/48/42 35/41/36
f 37/43/37 43/50/43 48/56/44 42/49/38
f 38/45/39 44/52/45 43/51/43 37/44/37
f 39/46/40 45/53/46 44/52/45 38/45/39
f 40/47/41 46/54/47 45/53/46 39/46/40
f 41/48/42 47/55/48 46/54/47 40/47/41
f 42/49/38 48/56/44 47/55/48 41/48/42
f 43/50/43 49/57/49 54/63/50 48/56/44
f 44/52/45 50/59/51 49/58/49 43/51/43
f 45/53/46 51/60/52 50/59/51 44/52/45
f 46/54/47 52/61/53 51/60/52 45/53/46
f 47/55/48 53/62/54 52/61/53 46/54/47
f 48/56/44 54/63/50 53/62/54 47/55/48
f 49/57/49 55/64/55 60/70/56 54/63/50
f 50/59/51 56/66/57 55/65/55 49/58/49
f 51/60/52 57/67/58 56/66/57 50/59/51
f 52/61/53 58/68/59 57/67/58 51/60/52
f 53/62/54 59/69/60 58/68/59 52/61/53
f 54/63/50 60/70/56 59/69/60 53/62/54
f 55/64/55 61/71/61 66/77/62 60/70/56
f 56/66/57 62/73/63 61/72/61 55/65/55
f 57/67/58 63/74/64 62/73/63 56/66/57
f 58/68/59 64/75/65 63/74/64 57/67/58
f 59/69/60 65/76/66 64/75/65 58/68/59
f 60/70/56 66/77/62 65/76/66 59/69/60
f 61/71/61 67/78/67 72/84/68 66/77/62
f 62/73/63 68/80/69 67/79/67 61/72/61
f 63/74/64 69/81/70 68/80/69 62/73/63
f 64/75/65 70/82/71 69/81/70 63/74/64
f 65/76/66 71/83/72 70/82/71 64/75/65
f 66/77/62 72/84/68 71/83/72 65/76/66
f 67/78/67 73/85/73 78/91/74 72/84/68
f 68/80/69 74/87/75 73/86/73 67/79/67
f 69/81/70 75/88/76 74/87/75 68/80/69
f 70/82/71 76/89/77 75/88/76 69/81/70
f 71/83/72 77/90/78 76/89/77 70/82/71
f 72/84/68 78/91/74 77/90/78 71/83/72
f 73/85/73 79/92/79 84/98/80 78/91/74
f 74/87/75 80/94/81 79/93/79 73/86/73
f 75/88/76 81/95/82 80/94/81 74/87/75
f 76/89/77 82/96/83 81/95/82 75/88/76
f 77/90/78 83/97/84 82/96/83 76/89/77
f 78/91/74 84/98/80 83/97/84 77/90/78
f 79/92/79 85/99/85 90/105/86 84/98/80
f 80/94/81 86/101/87 85/100/85 79/93/79
f 81/95/82 87/102/88 86/101/87 80/94/81
f 82/96/83 88/103/89 87/102/88 81/95/82
f 83/97/84 89/104/90 88/103/89 82/96/83
f 84/98/80 90/105/86 89/104/90 83/97/84
f 85/99/85 91/106/91 96/112/92 90/105/86
f 86/101/87 92/108/93 91/107/91 85/100/85
f 87/102/88 93/109/94 92/108/93 86/101/87
f 88/103/89 94/110/95 93/109/94 87/102/88
f 89/104/90 95/111/96 94/110/95 88/103/89
f 90/105/86 96/112/92 95/111/96 89/104/90
f 91/106/91 97/113/97 102/119/98 96/112/92
f 92/108/93 98/115/99 97/114/97 91/107/91
f 93/109/94 99/116/100 98/115/99 92/108/93
f 94/110/95 100/117/101 99/116/100 93/109/94
f 95/111/96 101/118/102 100/117/101 94/110/95
f 96/112/92 102/119/98 101/118/102 95/111/96
