# Blender 3.4.1
# www.blender.org
mtllib mebius2scissored3.mtl
o BezierCircle.003
v 9.609575 -0.850309 8.194434
v 9.627988 -0.482886 7.983102
v 10.131055 1.070027 2.209422
v 10.162948 0.857895 1.843387
v 10.144534 0.490472 2.054718
v 9.641468 -1.062441 7.828398
v 7.848626 -0.640005 8.059306
v 7.878186 -0.287242 7.825459
v 8.616187 0.883299 1.987207
v 8.660427 0.647591 1.637228
v 8.630868 0.294828 1.871076
v 7.892867 -0.875713 7.709328
v 6.130248 -0.426943 7.839540
v 6.174880 -0.090352 7.585150
v 7.202861 0.692804 1.725976
v 7.261028 0.434529 1.394449
v 7.216396 0.097938 1.648839
v 6.188414 -0.685219 7.508012
v 4.457030 -0.212037 7.521278
v 4.521341 0.106942 7.249034
v 5.897777 0.499360 1.422248
v 5.971108 0.219623 1.111812
v 5.906798 -0.099356 1.384057
v 4.530362 -0.491774 7.210843
v 2.833194 0.003794 7.089156
v 2.922385 0.303794 6.802722
v 4.706215 0.303792 1.074025
v 4.795405 0.003792 0.787590
v 4.706215 -0.296208 1.074025
v 2.922385 -0.296206 6.802722
v 1.263227 0.003793 6.533086
v 1.375735 0.303793 6.254980
v 3.625860 0.303792 0.692882
v 3.738366 0.003792 0.414778
v 3.625858 -0.296208 0.692883
v 1.375734 -0.296207 6.254980
v -0.246232 0.003793 5.841550
v -0.107662 0.303793 5.575471
v 2.663739 0.303792 0.253878
v 2.802310 0.003792 -0.012201
v 2.663739 -0.296208 0.253878
v -0.107662 -0.296207 5.575469
v -1.681473 0.003793 4.996845
v -1.514931 0.303793 4.747319
v 1.815929 0.303792 -0.243212
v 1.982471 0.003792 -0.492739
v 1.815929 -0.296208 -0.243212
v -1.514931 -0.296207 4.747319
v -3.022623 0.003793 3.985071
v -2.827597 0.303793 3.757112
v 1.072901 0.303792 -0.802065
v 1.267925 0.003792 -1.030025
v 1.072900 -0.296208 -0.802065
v -2.827599 -0.296207 3.757112
v -4.245263 0.003793 2.799681
v -4.023060 0.303793 2.598123
v 0.421000 0.303792 -1.433048
v 0.643203 0.003792 -1.634606
v 0.421000 -0.296208 -1.433048
v -4.023060 -0.296207 2.598123
v -5.324831 0.003793 1.443389
v -5.078578 0.303793 1.272040
v -0.153560 0.303792 -2.154940
v 0.092692 0.003792 -2.326290
v -0.153560 -0.296208 -2.154941
v -5.078578 -0.296207 1.272039
v -6.242160 0.003792 -0.073521
v -5.976325 0.303792 -0.212564
v -0.659662 0.303791 -2.993411
v -0.393831 0.003791 -3.132453
v -0.659664 -0.296209 -2.993411
v -5.976325 -0.296208 -0.212564
v -6.987035 0.003792 -1.738185
v -6.706604 0.303792 -1.844770
v -1.098053 0.303791 -3.976469
v -0.817627 0.003792 -4.083055
v -1.098053 -0.296208 -3.976470
v -6.706604 -0.296208 -1.844771
v -7.557945 0.003791 -3.540687
v -7.267640 0.303791 -3.616342
v -1.461563 0.303791 -5.129446
v -1.171260 0.003791 -5.205101
v -1.461563 -0.296209 -5.129446
v -7.267640 -0.296209 -3.616342
v -7.958942 0.003791 -5.477324
v -7.662708 0.303791 -5.524690
v -1.737964 0.303791 -6.472023
v -1.441727 0.003791 -6.519390
v -1.737964 -0.296209 -6.472024
v -7.662708 -0.296209 -5.524691
v -8.195974 0.003791 -7.550887
v -7.896801 0.303791 -7.573130
v -1.913313 0.303791 -8.017980
v -1.614137 0.003791 -8.040222
v -1.913313 -0.296209 -8.017981
v -7.896801 -0.296209 -7.573131
v -8.274291 0.003791 -9.773035
v -7.974291 0.303791 -9.773035
v -1.974290 0.303791 -9.773035
v -1.674290 0.003791 -9.773035
v -1.974290 -0.296209 -9.773035
v -7.974291 -0.296210 -9.773035
vn -0.0839 -0.2575 0.9626
vn -0.1231 -0.1939 0.9733
vn -0.0686 -0.9790 0.1920
vn -0.0544 -0.9901 0.1295
vn -0.0106 0.7909 0.6119
vn -0.0268 0.8285 0.5594
vn -0.0360 0.9910 -0.1288
vn -0.0259 0.9808 -0.1933
vn 0.0829 0.2623 -0.9614
vn 0.1219 0.1988 -0.9724
vn 0.1001 -0.7948 -0.5986
vn 0.1192 -0.8331 -0.5401
vn -0.1715 -0.1296 0.9766
vn -0.0899 -0.9635 0.2520
vn -0.0433 0.8626 0.5041
vn -0.0091 0.9665 -0.2564
vn 0.1700 0.1343 -0.9762
vn 0.1384 -0.8679 -0.4771
vn -0.2297 -0.0650 0.9711
vn -0.1198 -0.9438 0.3079
vn -0.0587 0.8930 0.4461
vn 0.0160 0.9483 -0.3171
vn 0.2279 0.0689 -0.9712
vn 0.1561 -0.8988 -0.4096
vn -0.2945 0.0128 0.9556
vn -0.1368 -0.9238 0.3576
vn -0.0976 0.9169 0.3869
vn 0.0786 0.9299 -0.3593
vn 0.3026 -0.0224 -0.9528
vn 0.1399 -0.9239 -0.3561
vn -0.3755 -0.0000 0.9268
vn -0.1472 -0.9200 0.3632
vn -0.1472 0.9200 0.3632
vn 0.1397 0.9277 -0.3462
vn 0.3742 -0.0000 -0.9273
vn 0.1397 -0.9277 -0.3462
vn -0.4624 -0.0000 0.8867
vn -0.1819 -0.9194 0.3486
vn -0.1819 0.9194 0.3486
vn 0.1715 0.9282 -0.3301
vn 0.4610 -0.0000 -0.8874
vn 0.1715 -0.9282 -0.3301
vn -0.5556 -0.0000 0.8314
vn -0.2192 -0.9189 0.3280
vn -0.2192 0.9189 0.3280
vn 0.2055 0.9288 -0.3085
vn 0.5543 -0.0000 -0.8323
vn 0.2055 -0.9288 -0.3085
vn -0.6504 -0.0000 0.7596
vn -0.2572 -0.9185 0.3003
vn -0.2572 0.9185 0.3003
vn 0.2401 0.9292 -0.2810
vn 0.6495 -0.0000 -0.7604
vn 0.2401 -0.9292 -0.2810
vn -0.7408 -0.0000 0.6718
vn -0.2933 -0.9183 0.2659
vn -0.2933 0.9183 0.2659
vn 0.2733 0.9294 -0.2480
vn 0.7405 -0.0000 -0.6721
vn 0.2733 -0.9294 -0.2480
vn -0.8207 -0.0000 0.5713
vn -0.3249 -0.9183 0.2262
vn -0.3249 0.9183 0.2262
vn 0.3030 0.9294 -0.2107
vn 0.8210 -0.0000 -0.5709
vn 0.3030 -0.9294 -0.2107
vn -0.8859 -0.0000 0.4638
vn -0.3502 -0.9185 0.1834
vn -0.3502 0.9185 0.1834
vn 0.3277 0.9292 -0.1711
vn 0.8864 -0.0000 -0.4629
vn 0.3277 -0.9292 -0.1711
vn -0.9346 -0.0000 0.3557
vn -0.3686 -0.9189 0.1403
vn -0.3686 0.9189 0.1403
vn 0.3466 0.9288 -0.1314
vn 0.9351 -0.0000 -0.3545
vn 0.3466 -0.9288 -0.1314
vn -0.9676 -0.0000 0.2527
vn -0.3805 -0.9194 0.0994
vn -0.3805 0.9194 0.0994
vn 0.3600 0.9283 -0.0935
vn 0.9679 -0.0000 -0.2514
vn 0.3600 -0.9283 -0.0935
vn -0.9874 -0.0000 0.1583
vn -0.3871 -0.9200 0.0621
vn -0.3871 0.9200 0.0621
vn 0.3686 0.9277 -0.0587
vn 0.9876 -0.0000 -0.1573
vn 0.3686 -0.9277 -0.0587
vn -0.9972 -0.0000 0.0744
vn -0.3897 -0.9205 0.0291
vn -0.3897 0.9205 0.0291
vn 0.3735 0.9272 -0.0276
vn 0.9973 -0.0000 -0.0737
vn 0.3735 -0.9272 -0.0276
vn -1.0000 -0.0058 -0.0019
vn -0.3997 -0.9165 -0.0169
vn -0.3800 0.9248 0.0181
vn 0.3849 0.9227 -0.0200
vn 0.9999 0.0110 -0.0031
vn 0.3653 -0.9306 0.0218
vt 0.333333 1.000000
vt 0.333333 0.000000
vt 0.333333 0.166667
vt 0.333333 0.333333
vt 0.333333 0.500000
vt 0.333333 0.666667
vt 0.333333 0.833333
vt 0.343750 1.000000
vt 0.343750 0.000000
vt 0.343750 0.166667
vt 0.343750 0.333333
vt 0.343750 0.500000
vt 0.343750 0.666667
vt 0.343750 0.833333
vt 0.354167 1.000000
vt 0.354167 0.000000
vt 0.354167 0.166667
vt 0.354167 0.333333
vt 0.354167 0.500000
vt 0.354167 0.666667
vt 0.354167 0.833333
vt 0.364583 1.000000
vt 0.364583 0.000000
vt 0.364583 0.166667
vt 0.364583 0.333333
vt 0.364583 0.500000
vt 0.364583 0.666667
vt 0.364583 0.833333
vt 0.375000 1.000000
vt 0.375000 0.000000
vt 0.375000 0.166667
vt 0.375000 0.333333
vt 0.375000 0.500000
vt 0.375000 0.666667
vt 0.375000 0.833333
vt 0.385417 1.000000
vt 0.385417 0.000000
vt 0.385417 0.166667
vt 0.385417 0.333333
vt 0.385417 0.500000
vt 0.385417 0.666667
vt 0.385417 0.833333
vt 0.395833 1.000000
vt 0.395833 0.000000
vt 0.395833 0.166667
vt 0.395833 0.333333
vt 0.395833 0.500000
vt 0.395833 0.666667
vt 0.395833 0.833333
vt 0.406250 1.000000
vt 0.406250 0.000000
vt 0.406250 0.166667
vt 0.406250 0.333333
vt 0.406250 0.500000
vt 0.406250 0.666667
vt 0.406250 0.833333
vt 0.416667 1.000000
vt 0.416667 0.000000
vt 0.416667 0.166667
vt 0.416667 0.333333
vt 0.416667 0.500000
vt 0.416667 0.666667
vt 0.416667 0.833333
vt 0.427083 1.000000
vt 0.427083 0.000000
vt 0.427083 0.166667
vt 0.427083 0.333333
vt 0.427083 0.500000
vt 0.427083 0.666667
vt 0.427083 0.833333
vt 0.437500 1.000000
vt 0.437500 0.000000
vt 0.437500 0.166667
vt 0.437500 0.333333
vt 0.437500 0.500000
vt 0.437500 0.666667
vt 0.437500 0.833333
vt 0.447917 1.000000
vt 0.447917 0.000000
vt 0.447917 0.166667
vt 0.447917 0.333333
vt 0.447917 0.500000
vt 0.447917 0.666667
vt 0.447917 0.833333
vt 0.458333 1.000000
vt 0.458333 0.000000
vt 0.458333 0.166667
vt 0.458333 0.333333
vt 0.458333 0.500000
vt 0.458333 0.666667
vt 0.458333 0.833333
vt 0.468750 1.000000
vt 0.468750 0.000000
vt 0.468750 0.166667
vt 0.468750 0.333333
vt 0.468750 0.500000
vt 0.468750 0.666667
vt 0.468750 0.833333
vt 0.479167 1.000000
vt 0.479167 0.000000
vt 0.479167 0.166667
vt 0.479167 0.333333
vt 0.479167 0.500000
vt 0.479167 0.666667
vt 0.479167 0.833333
vt 0.489583 1.000000
vt 0.489583 0.000000
vt 0.489583 0.166667
vt 0.489583 0.333333
vt 0.489583 0.500000
vt 0.489583 0.666667
vt 0.489583 0.833333
vt 0.500000 1.000000
vt 0.500000 0.000000
vt 0.500000 0.166667
vt 0.500000 0.333333
vt 0.500000 0.500000
vt 0.500000 0.666667
vt 0.500000 0.833333
s 1
f 1/1/1 7/8/2 12/14/3 6/7/4
f 2/3/5 8/10/6 7/9/2 1/2/1
f 3/4/7 9/11/8 8/10/6 2/3/5
f 4/5/9 10/12/10 9/11/8 3/4/7
f 5/6/11 11/13/12 10/12/10 4/5/9
f 6/7/4 12/14/3 11/13/12 5/6/11
f 7/8/2 13/15/13 18/21/14 12/14/3
f 8/10/6 14/17/15 13/16/13 7/9/2
f 9/11/8 15/18/16 14/17/15 8/10/6
f 10/12/10 16/19/17 15/18/16 9/11/8
f 11/13/12 17/20/18 16/19/17 10/12/10
f 12/14/3 18/21/14 17/20/18 11/13/12
f 13/15/13 19/22/19 24/28/20 18/21/14
f 14/17/15 20/24/21 19/23/19 13/16/13
f 15/18/16 21/25/22 20/24/21 14/17/15
f 16/19/17 22/26/23 21/25/22 15/18/16
f 17/20/18 23/27/24 22/26/23 16/19/17
f 18/21/14 24/28/20 23/27/24 17/20/18
f 19/22/19 25/29/25 30/35/26 24/28/20
f 20/24/21 26/31/27 25/30/25 19/23/19
f 21/25/22 27/32/28 26/31/27 20/24/21
f 22/26/23 28/33/29 27/32/28 21/25/22
f 23/27/24 29/34/30 28/33/29 22/26/23
f 24/28/20 30/35/26 29/34/30 23/27/24
f 25/29/25 31/36/31 36/42/32 30/35/26
f 26/31/27 32/38/33 31/37/31 25/30/25
f 27/32/28 33/39/34 32/38/33 26/31/27
f 28/33/29 34/40/35 33/39/34 27/32/28
f 29/34/30 35/41/36 34/40/35 28/33/29
f 30/35/26 36/42/32 35/41/36 29/34/30
f 31/36/31 37/43/37 42/49/38 36/42/32
f 32/38/33 38/45/39 37/44/37 31/37/31
f 33/39/34 39/46/40 38/45/39 32/38/33
f 34/40/35 40/47/41 39/46/40 33/39/34
f 35/41/36 41/48/42 40/47/41 34/40/35
f 36/42/32 42/49/38 41/48/42 35/41/36
f 37/43/37 43/50/43 48/56/44 42/49/38
f 38/45/39 44/52/45 43/51/43 37/44/37
f 39/46/40 45/53/46 44/52/45 38/45/39
f 40/47/41 46/54/47 45/53/46 39/46/40
f 41/48/42 47/55/48 46/54/47 40/47/41
f 42/49/38 48/56/44 47/55/48 41/48/42
f 43/50/43 49/57/49 54/63/50 48/56/44
f 44/52/45 50/59/51 49/58/49 43/51/43
f 45/53/46 51/60/52 50/59/51 44/52/45
f 46/54/47 52/61/53 51/60/52 45/53/46
f 47/55/48 53/62/54 52/61/53 46/54/47
f 48/56/44 54/63/50 53/62/54 47/55/48
f 49/57/49 55/64/55 60/70/56 54/63/50
f 50/59/51 56/66/57 55/65/55 49/58/49
f 51/60/52 57/67/58 56/66/57 50/59/51
f 52/61/53 58/68/59 57/67/58 51/60/52
f 53/62/54 59/69/60 58/68/59 52/61/53
f 54/63/50 60/70/56 59/69/60 53/62/54
f 55/64/55 61/71/61 66/77/62 60/70/56
f 56/66/57 62/73/63 61/72/61 55/65/55
f 57/67/58 63/74/64 62/73/63 56/66/57
f 58/68/59 64/75/65 63/74/64 57/67/58
f 59/69/60 65/76/66 64/75/65 58/68/59
f 60/70/56 66/77/62 65/76/66 59/69/60
f 61/71/61 67/78/67 72/84/68 66/77/62
f 62/73/63 68/80/69 67/79/67 61/72/61
f 63/74/64 69/81/70 68/80/69 62/73/63
f 64/75/65 70/82/71 69/81/70 63/74/64
f 65/76/66 71/83/72 70/82/71 64/75/65
f 66/77/62 72/84/68 71/83/72 65/76/66
f 67/78/67 73/85/73 78/91/74 72/84/68
f 68/80/69 74/87/75 73/86/73 67/79/67
f 69/81/70 75/88/76 74/87/75 68/80/69
f 70/82/71 76/89/77 75/88/76 69/81/70
f 71/83/72 77/90/78 76/89/77 70/82/71
f 72/84/68 78/91/74 77/90/78 71/83/72
f 73/85/73 79/92/79 84/98/80 78/91/74
f 74/87/75 80/94/81 79/93/79 73/86/73
f 75/88/76 81/95/82 80/94/81 74/87/75
f 76/89/77 82/96/83 81/95/82 75/88/76
f 77/90/78 83/97/84 82/96/83 76/89/77
f 78/91/74 84/98/80 83/97/84 77/90/78
f 79/92/79 85/99/85 90/105/86 84/98/80
f 80/94/81 86/101/87 85/100/85 79/93/79
f 81/95/82 87/102/88 86/101/87 80/94/81
f 82/96/83 88/103/89 87/102/88 81/95/82
f 83/97/84 89/104/90 88/103/89 82/96/83
f 84/98/80 90/105/86 89/104/90 83/97/84
f 85/99/85 91/106/91 96/112/92 90/105/86
f 86/101/87 92/108/93 91/107/91 85/100/85
f 87/102/88 93/109/94 92/108/93 86/101/87
f 88/103/89 94/110/95 93/109/94 87/102/88
f 89/104/90 95/111/96 94/110/95 88/103/89
f 90/105/86 96/112/92 95/111/96 89/104/90
f 91/106/91 97/113/97 102/119/98 96/112/92
f 92/108/93 98/115/99 97/114/97 91/107/91
f 93/109/94 99/116/100 98/115/99 92/108/93
f 94/110/95 100/117/101 99/116/100 93/109/94
f 95/111/96 101/118/102 100/117/101 94/110/95
f 96/112/92 102/119/98 101/118/102 95/111/96
