# Blender 3.4.1
# www.blender.org
mtllib lightning.mtl
o NurbsPath.002
v 0.042995 -0.001554 -1.544692
v 0.042995 -0.001554 -1.544692
v 0.042995 -0.001554 -1.544692
v 0.042995 -0.001554 -1.544692
v 0.042995 -0.001554 -1.544692
v 0.042995 -0.001554 -1.544692
v 0.120352 -0.101670 -1.200382
v 0.142648 -0.068461 -1.200596
v 0.125566 -0.032946 -1.207444
v 0.086187 -0.030640 -1.214077
v 0.063891 -0.063849 -1.213863
v 0.080973 -0.099364 -1.207015
v -0.042589 0.011756 -0.992106
v -0.020958 0.044955 -0.986631
v -0.039174 0.080452 -0.983782
v -0.079022 0.082751 -0.986408
v -0.100653 0.049552 -0.991883
v -0.082436 0.014055 -0.994732
v 0.134635 -0.205632 -0.716173
v 0.155772 -0.171960 -0.720582
v 0.137532 -0.136440 -0.718201
v 0.098155 -0.134593 -0.711412
v 0.077019 -0.168265 -0.707003
v 0.095259 -0.203785 -0.709384
v 0.071890 -0.024167 -0.456398
v 0.091069 0.010517 -0.450998
v 0.076508 0.044135 -0.467055
v 0.042767 0.043068 -0.488513
v 0.023588 0.008384 -0.493914
v 0.038149 -0.025233 -0.477856
v -0.152301 -0.118174 -0.258890
v -0.129951 -0.085001 -0.259079
v -0.143463 -0.051883 -0.276986
v -0.179325 -0.051939 -0.294705
v -0.201675 -0.085112 -0.294516
v -0.188163 -0.118229 -0.276608
v -0.126734 0.133880 -0.036724
v -0.107213 0.154189 -0.065122
v -0.120040 0.190422 -0.076197
v -0.152387 0.206345 -0.058874
v -0.171909 0.186036 -0.030476
v -0.159082 0.149803 -0.019401
v 0.151979 0.117703 0.098436
v 0.186184 0.136287 0.089235
v 0.196542 0.169795 0.108469
v 0.172694 0.184719 0.136904
v 0.138489 0.166135 0.146105
v 0.128131 0.132628 0.126871
v 0.118289 -0.084948 0.247424
v 0.155560 -0.084813 0.261943
v 0.166793 -0.056569 0.287945
v 0.140754 -0.028460 0.299428
v 0.103482 -0.028595 0.284908
v 0.092250 -0.056839 0.258906
v -0.028865 -0.196264 0.544558
v 0.010559 -0.190408 0.547945
v 0.024560 -0.154807 0.559627
v -0.000863 -0.125060 0.567923
v -0.040287 -0.130915 0.564537
v -0.054288 -0.166517 0.552854
v 0.102753 -0.281672 0.893116
v 0.142053 -0.275695 0.888670
v 0.155696 -0.239741 0.877663
v 0.130038 -0.209763 0.871102
v 0.090738 -0.215741 0.875548
v 0.077095 -0.251695 0.886555
v -0.008720 0.020042 1.197322
v 0.030269 0.028269 1.200813
v 0.043814 0.064931 1.192304
v 0.018370 0.093367 1.180303
v -0.020619 0.085140 1.176812
v -0.034164 0.048478 1.185322
v -0.034300 -0.008157 1.465503
v -0.034300 -0.008157 1.465503
v -0.034300 -0.008157 1.465503
v -0.034300 -0.008157 1.465503
v -0.034300 -0.008157 1.465503
v -0.034300 -0.008157 1.465503
vn 0.4336 -0.8345 -0.3401
vn 0.4669 -0.8673 0.1726
vn -0.4167 -0.9087 -0.0261
vn -0.5361 -0.8250 -0.1787
vn 0.9540 -0.0740 -0.2907
vn 0.9710 -0.1473 0.1884
vn 0.5599 0.8264 -0.0602
vn 0.6813 0.7318 0.0194
vn -0.4438 0.8858 0.1359
vn -0.3355 0.9093 -0.2462
vn -0.9950 0.0660 0.0753
vn -0.9568 -0.0374 -0.2882
vn 0.3084 -0.9486 -0.0716
vn -0.7237 -0.6801 -0.1176
vn 0.9860 0.1494 0.0734
vn 0.3777 0.9169 0.1287
vn -0.4708 0.8794 0.0706
vn -0.9840 0.1738 -0.0387
vn 0.4413 -0.8937 -0.0811
vn -0.4395 -0.8967 0.0527
vn 0.9703 -0.1861 -0.1547
vn 0.7325 0.6728 -0.1039
vn -0.4207 0.9052 0.0603
vn -0.9745 -0.1667 0.1504
vn 0.5289 -0.7217 0.4467
vn -0.4231 -0.9003 -0.1021
vn 0.8444 0.1739 0.5067
vn 0.4274 0.8957 0.1228
vn -0.3200 0.8795 -0.3521
vn -0.8249 0.1174 -0.5529
vn 0.2905 -0.8733 0.3911
vn -0.5120 -0.8589 0.0148
vn 0.8663 -0.1871 0.4631
vn 0.4804 0.8761 -0.0401
vn -0.5846 0.6703 -0.4571
vn -0.9130 -0.1489 -0.3797
vn 0.1303 -0.9181 0.3743
vn -0.6098 -0.4272 0.6676
vn 0.8312 -0.2454 -0.4990
vn 0.4178 0.6475 -0.6373
vn -0.3275 0.9173 -0.2264
vn -0.8216 0.4039 0.4023
vn -0.0555 -0.8263 -0.5604
vn -0.8856 -0.3631 0.2896
vn 0.6797 -0.3190 -0.6604
vn 0.8630 0.4504 -0.2286
vn 0.3233 0.8570 0.4013
vn -0.4539 0.5734 0.6820
vn -0.2552 -0.7217 -0.6434
vn -0.9095 -0.0763 -0.4086
vn 0.6451 -0.7053 -0.2940
vn 0.9508 -0.0535 0.3052
vn 0.3946 0.6627 0.6365
vn -0.6761 0.6891 0.2609
vn -0.4592 -0.8436 -0.2784
vn -0.9937 -0.0891 -0.0673
vn 0.4964 -0.8362 -0.2330
vn 0.9921 0.1002 0.0756
vn 0.2459 0.9212 0.3015
vn -0.6603 0.7237 0.2008
vn -0.2306 -0.9346 0.2708
vn -0.9258 -0.3499 0.1433
vn 0.6450 -0.7443 0.1733
vn 0.9969 0.0463 -0.0629
vn 0.5026 0.8264 -0.2537
vn -0.6835 0.7128 -0.1571
vn -0.4083 -0.8845 0.2255
vn -0.9894 -0.0656 -0.1298
vn 0.6962 -0.5904 0.4083
vn 0.9098 0.3794 0.1685
vn 0.2553 0.9532 -0.1618
vn -0.6049 0.7477 -0.2740
vn -0.2824 -0.9509 -0.1269
vn -0.9792 -0.1985 -0.0406
vn 0.6676 -0.7421 0.0607
vn 0.9157 0.2364 0.3251
vn 0.2169 0.9063 0.3627
vn -0.6517 0.7302 0.2051
vt 0.000000 1.000000
vt 0.000000 0.000000
vt 0.000000 0.166667
vt 0.000000 0.333333
vt 0.000000 0.500000
vt 0.000000 0.666667
vt 0.000000 0.833333
vt 0.083333 1.000000
vt 0.083333 0.000000
vt 0.083333 0.166667
vt 0.083333 0.333333
vt 0.083333 0.500000
vt 0.083333 0.666667
vt 0.083333 0.833333
vt 0.166667 1.000000
vt 0.166667 0.000000
vt 0.166667 0.166667
vt 0.166667 0.333333
vt 0.166667 0.500000
vt 0.166667 0.666667
vt 0.166667 0.833333
vt 0.250000 1.000000
vt 0.250000 0.000000
vt 0.250000 0.166667
vt 0.250000 0.333333
vt 0.250000 0.500000
vt 0.250000 0.666667
vt 0.250000 0.833333
vt 0.333333 1.000000
vt 0.333333 0.000000
vt 0.333333 0.166667
vt 0.333333 0.333333
vt 0.333333 0.500000
vt 0.333333 0.666667
vt 0.333333 0.833333
vt 0.416667 1.000000
vt 0.416667 0.000000
vt 0.416667 0.166667
vt 0.416667 0.333333
vt 0.416667 0.500000
vt 0.416667 0.666667
vt 0.416667 0.833333
vt 0.500000 1.000000
vt 0.500000 0.000000
vt 0.500000 0.166667
vt 0.500000 0.333333
vt 0.500000 0.500000
vt 0.500000 0.666667
vt 0.500000 0.833333
vt 0.583333 1.000000
vt 0.583333 0.000000
vt 0.583333 0.166667
vt 0.583333 0.333333
vt 0.583333 0.500000
vt 0.583333 0.666667
vt 0.583333 0.833333
vt 0.666667 1.000000
vt 0.666667 0.000000
vt 0.666667 0.166667
vt 0.666667 0.333333
vt 0.666667 0.500000
vt 0.666667 0.666667
vt 0.666667 0.833333
vt 0.750000 1.000000
vt 0.750000 0.000000
vt 0.750000 0.166667
vt 0.750000 0.333333
vt 0.750000 0.500000
vt 0.750000 0.666667
vt 0.750000 0.833333
vt 0.833333 1.000000
vt 0.833333 0.000000
vt 0.833333 0.166667
vt 0.833333 0.333333
vt 0.833333 0.500000
vt 0.833333 0.666667
vt 0.833333 0.833333
vt 0.916667 1.000000
vt 0.916667 0.000000
vt 0.916667 0.166667
vt 0.916667 0.333333
vt 0.916667 0.500000
vt 0.916667 0.666667
vt 0.916667 0.833333
vt 1.000000 1.000000
vt 1.000000 0.000000
vt 1.000000 0.166667
vt 1.000000 0.333333
vt 1.000000 0.500000
vt 1.000000 0.666667
vt 1.000000 0.833333
s 1
f 1/1/1 7/8/2 12/14/3 6/7/4
f 2/3/5 8/10/6 7/9/2 1/2/1
f 3/4/7 9/11/8 8/10/6 2/3/5
f 4/5/9 10/12/10 9/11/8 3/4/7
f 5/6/11 11/13/12 10/12/10 4/5/9
f 6/7/4 12/14/3 11/13/12 5/6/11
f 7/8/2 13/15/13 18/21/14 12/14/3
f 8/10/6 14/17/15 13/16/13 7/9/2
f 9/11/8 15/18/16 14/17/15 8/10/6
f 10/12/10 16/19/17 15/18/16 9/11/8
f 11/13/12 17/20/18 16/19/17 10/12/10
f 12/14/3 18/21/14 17/20/18 11/13/12
f 13/15/13 19/22/19 24/28/20 18/21/14
f 14/17/15 20/24/21 19/23/19 13/16/13
f 15/18/16 21/25/22 20/24/21 14/17/15
f 16/19/17 22/26/23 21/25/22 15/18/16
f 17/20/18 23/27/24 22/26/23 16/19/17
f 18/21/14 24/28/20 23/27/24 17/20/18
f 19/22/19 25/29/25 30/35/26 24/28/20
f 20/24/21 26/31/27 25/30/25 19/23/19
f 21/25/22 27/32/28 26/31/27 20/24/21
f 22/26/23 28/33/29 27/32/28 21/25/22
f 23/27/24 29/34/30 28/33/29 22/26/23
f 24/28/20 30/35/26 29/34/30 23/27/24
f 25/29/25 31/36/31 36/42/32 30/35/26
f 26/31/27 32/38/33 31/37/31 25/30/25
f 27/32/28 33/39/34 32/38/33 26/31/27
f 28/33/29 34/40/35 33/39/34 27/32/28
f 29/34/30 35/41/36 34/40/35 28/33/29
f 30/35/26 36/42/32 35/41/36 29/34/30
f 31/36/31 37/43/37 42/49/38 36/42/32
f 32/38/33 38/45/39 37/44/37 31/37/31
f 33/39/34 39/46/40 38/45/39 32/38/33
f 34/40/35 40/47/41 39/46/40 33/39/34
f 35/41/36 41/48/42 40/47/41 34/40/35
f 36/42/32 42/49/38 41/48/42 35/41/36
f 37/43/37 43/50/43 48/56/44 42/49/38
f 38/45/39 44/52/45 43/51/43 37/44/37
f 39/46/40 45/53/46 44/52/45 38/45/39
f 40/47/41 46/54/47 45/53/46 39/46/40
f 41/48/42 47/55/48 46/54/47 40/47/41
f 42/49/38 48/56/44 47/55/48 41/48/42
f 43/50/43 49/57/49 54/63/50 48/56/44
f 44/52/45 50/59/51 49/58/49 43/51/43
f 45/53/46 51/60/52 50/59/51 44/52/45
f 46/54/47 52/61/53 51/60/52 45/53/46
f 47/55/48 53/62/54 52/61/53 46/54/47
f 48/56/44 54/63/50 53/62/54 47/55/48
f 49/57/49 55/64/55 60/70/56 54/63/50
f 50/59/51 56/66/57 55/65/55 49/58/49
f 51/60/52 57/67/58 56/66/57 50/59/51
f 52/61/53 58/68/59 57/67/58 51/60/52
f 53/62/54 59/69/60 58/68/59 52/61/53
f 54/63/50 60/70/56 59/69/60 53/62/54
f 55/64/55 61/71/61 66/77/62 60/70/56
f 56/66/57 62/73/63 61/72/61 55/65/55
f 57/67/58 63/74/64 62/73/63 56/66/57
f 58/68/59 64/75/65 63/74/64 57/67/58
f 59/69/60 65/76/66 64/75/65 58/68/59
f 60/70/56 66/77/62 65/76/66 59/69/60
f 61/71/61 67/78/67 72/84/68 66/77/62
f 62/73/63 68/80/69 67/79/67 61/72/61
f 63/74/64 69/81/70 68/80/69 62/73/63
f 64/75/65 70/82/71 69/81/70 63/74/64
f 65/76/66 71/83/72 70/82/71 64/75/65
f 66/77/62 72/84/68 71/83/72 65/76/66
f 67/78/67 73/85/73 78/91/74 72/84/68
f 68/80/69 74/87/75 73/86/73 67/79/67
f 69/81/70 75/88/76 74/87/75 68/80/69
f 70/82/71 76/89/77 75/88/76 69/81/70
f 71/83/72 77/90/78 76/89/77 70/82/71
f 72/84/68 78/91/74 77/90/78 71/83/72
